<svg xmlns="http://www.w3.org/2000/svg" viewBox="0 0 24 24" role="img" aria-label="Wells Fargo"><rect width="24" height="24" rx="4" fill="#D71E28"/><path fill="#FFCD41" d="M12.136 13.949c0 .392-.245.616-.719.616h-.628v-1.226h.628c.48 0 .72.212.72.61zM6.922 15.06h1.044l-.523-1.443-.521 1.443zm12.46-1.82c-.72 0-1.109.562-1.109 1.526 0 .97.384 1.526 1.108 1.526.725 0 1.108-.556 1.108-1.526 0-.964-.389-1.526-1.108-1.526zM18.182 10.652c.484.245.948.354 1.571.354.895 0 1.481-.458 1.481-1.171 0-.6-.357-1.014-1.028-1.172l-.677-.158c-.394-.092-.559-.25-.559-.517 0-.322.25-.523.74-.523s.778.18.89.604l.048.186h.383v-.943a2.927 2.927 0 0 0-1.352-.338c-.911 0-1.497.447-1.497 1.166 0 .556.34.965.996 1.112l.676.152c.432.099.592.273.592.562 0 .354-.261.55-.784.55-.59 0-.894-.24-1.027-.697l-.07-.235h-.383v1.068zM2.692 7.557l.938 3.34h.74l.778-2.768.756 2.768h.74l.932-3.34h.736v2.866h-.453v.474h3.201V9.595h-.383l-.043.19c-.106.486-.26.638-.607.638h-.922V9.241h1.071a.58.58 0 0 0 .059-.273.55.55 0 0 0-.059-.26h-1.07v-1.15h.884c.357 0 .48.157.596.615l.038.147h.383V7.083H6.49v.474h.522l-.613 2.305-.762-2.779h-.766l-.746 2.774-.624-2.3h.501v-.474H2.266v.474h.426z"/></svg>